<svg xmlns="http://www.w3.org/2000/svg" width="30" height="30" viewBox="0 0 30 30">
    <g fill="none" fill-rule="evenodd">
        <path stroke="#CFCFCF" stroke-width="2" d="M24 25a1 1 0 0 0 1-1V8.828a1 1 0 0 0-.293-.707L21.88 5.293A1 1 0 0 0 21.172 5H6a1 1 0 0 0-1 1v18a1 1 0 0 0 1 1h18z"/>
        <rect width="12" height="10" x="9" y="15" stroke="#CFCFCF" stroke-width="2" rx="2"/>
        <rect width="10" height="6" x="10" y="5" stroke="#CFCFCF" stroke-width="2" rx="2"/>
        <rect width="3" height="4" x="15" y="5" fill="#CFCFCF" rx="1"/>
    </g>
</svg>
