<svg xmlns="http://www.w3.org/2000/svg" width="56" height="60" viewBox="0 0 56 60">
    <g fill="#CFCFCF" fill-rule="evenodd">
        <text font-family="AppleSDGothicNeo-Bold, Apple SD Gothic Neo" font-size="12" font-weight="bold">
            <tspan x="19.2" y="53">1 : 1</tspan>
        </text>
        <g transform="translate(16 10)">
            <rect width="2" height="10" x="6" y="7" rx="1"/>
            <rect width="2" height="10" x="16" y="7" rx="1"/>
            <path d="M22 22.05v-4a1 1 0 1 1 2 0v5a1 1 0 0 1-1 1h-5a1 1 0 0 1 0-2h4zM2 22.05v-4a1 1 0 1 0-2 0v5a1 1 0 0 0 1 1h5a1 1 0 0 0 0-2H2zM22 2.05v4a1 1 0 0 0 2 0v-5a1 1 0 0 0-1-1h-5a1 1 0 0 0 0 2h4zM2 2.05v4a1 1 0 1 1-2 0v-5a1 1 0 0 1 1-1h5a1 1 0 1 1 0 2H2z"/>
            <circle cx="12" cy="10" r="1"/>
            <circle cx="12" cy="14" r="1"/>
            <rect width="2" height="6" x="19.828" y="-.172" rx="1" transform="rotate(45 20.828 2.828)"/>
            <rect width="2" height="6" x="1.828" y="17.828" rx="1" transform="rotate(45 2.828 20.828)"/>
            <rect width="2" height="6" x="1.828" y="-.172" rx="1" transform="rotate(-45 2.828 2.828)"/>
            <rect width="2" height="6" x="19.828" y="17.828" rx="1" transform="rotate(-45 20.828 20.828)"/>
        </g>
    </g>
</svg>
